<svg width="860" height="818" viewBox="0 0 860 818" fill="none" xmlns="http://www.w3.org/2000/svg">
<path d="M182.087 477.321C183.113 473.492 187.049 471.219 190.879 472.245L301.813 501.97C305.643 502.996 307.915 506.932 306.889 510.762C305.863 514.591 301.927 516.863 298.098 515.837L187.163 486.112C183.334 485.086 181.061 481.15 182.087 477.321Z" fill="#F24E1E"/>
<path d="M261.208 431.641C265.038 432.667 267.31 436.603 266.284 440.432L236.559 551.366C235.533 555.196 231.597 557.468 227.768 556.442C223.939 555.416 221.666 551.48 222.692 547.651L252.417 436.716C253.443 432.887 257.379 430.614 261.208 431.641Z" fill="#F24E1E"/>
<path d="M262.045 188.721C263.071 184.891 267.007 182.619 270.836 183.645L381.771 213.37C385.6 214.396 387.872 218.332 386.846 222.161C385.82 225.99 381.884 228.263 378.055 227.237L267.121 197.512C263.291 196.486 261.019 192.55 262.045 188.721Z" fill="#F24E1E"/>
<path d="M341.166 143.04C344.995 144.066 347.268 148.002 346.242 151.831L316.517 262.766C315.491 266.595 311.555 268.868 307.725 267.842C303.896 266.816 301.624 262.88 302.65 259.05L332.375 148.116C333.401 144.286 337.337 142.014 341.166 143.04Z" fill="#F24E1E"/>
<path d="M658.732 448.711C659.758 444.882 663.694 442.61 667.523 443.636L778.458 473.361C782.287 474.387 784.559 478.323 783.533 482.152C782.507 485.981 778.571 488.253 774.742 487.227L663.807 457.503C659.978 456.477 657.706 452.541 658.732 448.711Z" fill="#F24E1E"/>
<path d="M737.853 403.031C741.682 404.057 743.954 407.993 742.928 411.822L713.203 522.757C712.177 526.586 708.241 528.858 704.412 527.832C700.583 526.806 698.311 522.87 699.337 519.041L729.061 408.106C730.087 404.277 734.023 402.005 737.853 403.031Z" fill="#F24E1E"/>
<path fill-rule="evenodd" clip-rule="evenodd" d="M411.575 354.242C393.122 364.896 386.799 388.492 397.453 406.946C408.107 425.399 431.704 431.722 450.157 421.068C468.61 410.414 474.933 386.817 464.279 368.364C453.625 349.911 430.029 343.588 411.575 354.242ZM386.575 413.227C372.452 388.765 380.833 357.486 405.295 343.364C429.756 329.241 461.035 337.622 475.158 362.083C489.28 386.545 480.899 417.824 456.438 431.946C431.976 446.069 400.698 437.688 386.575 413.227Z" fill="#27AAFF"/>
<path fill-rule="evenodd" clip-rule="evenodd" d="M518.348 539.178C499.895 549.832 493.572 573.428 504.226 591.882C514.88 610.335 538.476 616.658 556.93 606.004C575.383 595.35 581.706 571.753 571.052 553.3C560.398 534.847 536.801 528.524 518.348 539.178ZM493.348 598.163C479.225 573.701 487.606 542.422 512.067 528.3C536.529 514.177 567.807 522.558 581.93 547.019C596.053 571.481 587.672 602.759 563.211 616.882C538.749 631.005 507.47 622.624 493.348 598.163Z" fill="#27AAFF"/>
<path fill-rule="evenodd" clip-rule="evenodd" d="M121.661 279.187C103.207 289.841 96.8848 313.438 107.539 331.891C118.193 350.344 141.789 356.667 160.243 346.013C178.696 335.359 185.018 311.763 174.364 293.309C163.71 274.856 140.114 268.533 121.661 279.187ZM96.6603 338.172C82.5374 313.71 90.9185 282.431 115.38 268.309C139.841 254.186 171.12 262.567 185.243 287.028C199.366 311.49 190.985 342.769 166.523 356.891C142.062 371.014 110.783 362.633 96.6603 338.172Z" fill="#27AAFF"/>
<path d="M744.481 321.293L582.351 414.899L483.911 244.395L646.041 150.789C650.898 147.985 652.564 141.781 649.764 136.93C646.962 132.078 640.755 130.419 635.898 133.223L473.769 226.829L381.184 66.467C378.383 61.615 372.175 59.9566 367.319 62.7606C362.462 65.5645 360.795 71.7695 363.596 76.6215L456.181 236.983L285.476 335.54L192.891 175.178C190.09 170.326 183.883 168.667 179.026 171.471C174.169 174.275 172.502 180.48 175.303 185.332L267.888 345.694L106.45 438.9C101.594 441.704 99.9261 447.909 102.727 452.761C105.529 457.613 111.736 459.272 116.593 456.468L278.031 363.261L376.471 533.765L215.033 626.971C210.176 629.775 208.509 635.98 211.31 640.832C214.112 645.684 220.319 647.343 225.176 644.539L386.614 551.332L478.301 710.14C481.102 714.992 487.31 716.65 492.166 713.846C497.023 711.042 498.691 704.838 495.889 699.986L404.201 541.177L464.274 506.494C469.13 503.69 470.798 497.485 467.996 492.633C465.195 487.781 458.988 486.122 454.131 488.926L394.058 523.609L295.618 353.106L466.323 254.549L564.763 425.053L450.596 490.967C445.74 493.771 444.072 499.976 446.873 504.828C449.675 509.68 455.882 511.339 460.739 508.535L574.906 442.62L666.593 601.428C669.394 606.28 675.602 607.938 680.458 605.134C685.315 602.33 686.983 596.126 684.181 591.273L592.494 432.466L754.624 338.86C759.481 336.056 761.148 329.851 758.347 324.999C755.546 320.147 749.338 318.489 744.481 321.293Z" fill="#222"/>
</svg>
