<svg width="92" height="91" viewBox="0 0 92 91" fill="none" xmlns="http://www.w3.org/2000/svg">
<path d="M90.521 59.9338H63.2541V31.3266H90.521C91.3378 31.3266 91.9998 30.6669 91.9998 29.853C91.9998 29.039 91.3376 28.3793 90.5208 28.3793H63.2541V1.47374C63.2541 0.659659 62.5919 0 61.7752 0C60.9584 0 60.2962 0.659659 60.2962 1.47374V28.3793H31.5873V1.47374C31.5873 0.659659 30.9251 0 30.1084 0C29.2916 0 28.6294 0.659659 28.6294 1.47374V28.3793H1.47897C0.662195 28.3793 0 29.039 0 29.853C0 30.6671 0.662195 31.3268 1.47897 31.3268H28.6294V59.934H1.47897C0.662195 59.934 0 60.5936 0 61.4077C0 62.2218 0.662195 62.8814 1.47897 62.8814H28.6294V89.5263C28.6294 90.3403 29.2916 91 30.1084 91C30.9251 91 31.5873 90.3403 31.5873 89.5263V62.8812H41.6903C42.507 62.8812 43.1692 62.2216 43.1692 61.4075C43.1692 60.5934 42.507 59.9338 41.6903 59.9338H31.5873V31.3266H60.2962V59.9338H41.0958C40.279 59.9338 39.6168 60.5934 39.6168 61.4075C39.6168 62.2216 40.279 62.8812 41.0958 62.8812H60.2962V89.5261C60.2962 90.3401 60.9584 90.9998 61.7752 90.9998C62.5919 90.9998 63.2541 90.3401 63.2541 89.5261V62.8812H90.521C91.3378 62.8812 92 62.2216 92 61.4075C92 60.5934 91.3378 59.9338 90.521 59.9338Z" fill="#F24E1E"/>
</svg>
