<svg width="120" height="120" viewBox="0 0 120 120" fill="none" xmlns="http://www.w3.org/2000/svg">
<path d="M34.5442 34.5442C36.1063 32.9821 38.6389 32.9821 40.201 34.5442L85.4558 79.799C87.0179 81.3611 87.0179 83.8938 85.4558 85.4558C83.8937 87.0179 81.3611 87.0179 79.799 85.4558L34.5442 40.201C32.9821 38.6389 32.9821 36.1063 34.5442 34.5442Z" fill="#F24E1E"/>
<path d="M85.4558 34.5442C87.0179 36.1063 87.0179 38.6389 85.4558 40.201L40.201 85.4558C38.6389 87.0179 36.1063 87.0179 34.5442 85.4558C32.9821 83.8937 32.9821 81.3611 34.5442 79.799L79.799 34.5442C81.3611 32.9821 83.8937 32.9821 85.4558 34.5442Z" fill="#F24E1E"/>
</svg>
